<?xml version="1.0" encoding="utf-8"?>
<!-- Generator: Adobe Illustrator 15.1.0, SVG Export Plug-In . SVG Version: 6.00 Build 0)  -->
<!DOCTYPE svg PUBLIC "-//W3C//DTD SVG 1.1//EN" "http://www.w3.org/Graphics/SVG/1.1/DTD/svg11.dtd">
<svg version="1.1" id="Layer_1" xmlns="http://www.w3.org/2000/svg" xmlns:xlink="http://www.w3.org/1999/xlink" x="0px" y="0px"
	 viewBox="0 0 800 600" enable-background="new 0 0 800 600" xml:space="preserve">
<g id="Layer_2">
	<g>
		<ellipse fill="#E8141A" cx="392.762" cy="357.157" rx="213.52" ry="225.365"/>
		<g>
			<g>
				<g>
					<g>
						<polygon fill="#E8141A" points="606.997,357.156 607.033,356.504 606.91,354.81 						"/>
						<path fill="#E8141A" d="M606.491,346.029c-0.006,0.328-0.046,0.17-0.052,0.504c0.2,2.17,0.377,4.346,0.514,6.524
							C607.088,350.128,606.454,347.955,606.491,346.029z"/>
						<path fill="#E8141A" d="M606.426,344.107c-0.06-2.537-0.302-3.576-0.383-4.161
							C606.228,340.822,606.306,344.665,606.426,344.107z"/>
						<path fill="#E8141A" d="M496.877,159.858l0.681,0.395C497.22,160.044,496.999,159.917,496.877,159.858z"/>
						<path fill="#E8141A" d="M443.107,138.176l-0.619-0.033c10.573,2.415,22.125,6.574,32.629,11.146l-0.728-0.273
							c13.312,5.855,25.519,12.798,36.948,20.797c11.42,8.011,22.075,17.088,32.074,27.511l-0.782-0.729
							c0.998,0.973,2.11,2.048,3.167,3.202c0.255,0.317-0.335-0.286-0.69-0.643c2.007,2.297,5.023,5.606,7.735,8.805
							c2.722,3.189,5.154,6.25,6.254,7.81c1.052,1.356,1.571,1.913,1.046,1.111c13.712,18.002,25.335,39.532,33.114,61.248
							c0.345,1.054,0.361,1.263,0.197,0.998c6.824,18.496,11.024,38.936,12.521,59.044c0.144,0.766-0.072-2.06,0.169-0.085
							c-0.415-6.481-1.373-11.804-2.111-17.64l0.192,0.735c-0.614-4.239-0.317-0.828-0.953-5.227
							c-0.236-1.735,0.176,0.414,0.043-0.389c-1.598-8.96-3.749-18.23-6.4-26.381c-0.402-2.091-2.922-9.328-3.946-12.536
							c-0.867-2.19-1.694-4.404-2.128-5.195c-11.419-29.727-29.654-57.567-53.043-80.304c-5.582-5.204-11.856-10.764-18.742-16.145
							c-6.878-5.384-14.375-10.576-22.209-15.124c-0.102-0.073-0.075-0.073,0.033-0.021c-5.114-2.952-12.735-6.953-19.14-9.89
							c-1.83-0.782-3.667-1.547-5.519-2.271c-19.448-8.401-40.5-13.71-61.941-15.528c-21.44-1.834-43.244-0.269-64.221,4.61
							c-23.841,5.579-45.186,14.95-64.394,27.228c-19.183,12.332-36.314,27.624-51.189,46.23c0.014-0.069-0.244,0.219,0.52-0.746
							c-8.644,10.689-15.787,21.041-22.107,32.346l-0.01-0.051c-7.79,14.05-14.476,29.457-19.37,45.289
							c-4.908,15.825-8.028,32.048-9.312,47.466c-1.796,18.744-1.405,38.959,1.717,59.064c3.088,20.107,8.95,40.051,17.026,58.271
							l-0.098-0.06c6.479,14.573,14.229,28.291,23.305,41.075c9.072,12.781,19.471,24.638,31.294,35.308
							c12.061,11.079,25.872,20.935,40.692,28.983c14.815,8.066,30.629,14.297,46.557,18.601c9.824,2.789,21.505,4.889,33.12,5.854
							c11.617,1,23.13,0.885,32.704,0.403c19.677-1.063,38.903-5.176,57.096-11.98c18.197-6.81,35.367-16.285,51.12-28.083
							c14.68-10.696,27.862-23.387,39.249-37.319c11.398-13.937,21.004-29.107,28.855-44.846
							c7.078-15.068,13.891-32.302,17.87-50.472l-0.227,0.629c1.764-6.446,2.547-14.624,3.485-18.68l-0.085,0.697
							c0.714-3.469,0.625-8.178,1.056-10.282l-0.035-0.577c0.379-4.251,0.158-0.492,0.497-3.768
							c0.084-1.236-0.133-0.483,0.118-3.057c0.209-0.266,0.373-2.876,0.484-5.454c0.107-2.579,0.167-5.126,0.387-5.268
							c-0.069,2.337,0.277-3.659,0.21,1.594c0.137-1.494,0.176-8.665-0.024-8.021c-0.197-0.611-0.359-3.405-0.521,0.942l0.137,0.874
							c-0.15,1.462-0.079,1.112-0.194,1.635c-0.135,5.674-0.388,6.425-0.689,10.479c0.007-0.039,0.014-0.08,0.018-0.019
							c0.014,2.785-0.389,6.612-0.626,8.8l-0.165,0.869c-0.281,1.313-0.385,6.446-0.471,4.7
							c-1.268,11.456-3.771,24.477-7.337,36.857c-0.349,1.777-2.891,9.428-1.851,6.806c-0.607,1.499-1.665,4.523-2.81,7.559
							c-1.134,3.041-2.335,6.098-2.989,7.751c0.027-0.132,0.061-0.283,0.272-0.797c-2.861,6.279-2.849,7.681-5.893,13.403
							c-0.099,0.512-1.366,3.163-2.863,6.068c-1.489,2.91-3.205,6.071-3.965,7.743c-0.436,0.671-0.616,0.874-0.514,0.6
							c-5.666,10.176-12.982,20.786-19.089,28.509c-2.499,3.385-5.759,7.306-9.063,10.984c-3.294,3.69-6.622,7.146-9.077,9.81
							c-4.277,4.21-11.515,10.676-18.01,15.959l0.61-0.539c-3.673,2.969-7.922,6.157-11.962,8.998
							c-4.044,2.839-7.87,5.341-10.591,7.106c-2.549,1.186-6.036,3.304-9.683,5.142c-2.738,1.558-6.96,3.759-11.65,5.938
							c-4.689,2.185-9.851,4.33-14.342,6.057c-1.42,0.41-7.471,2.696-8.017,2.623c-12.747,4.359-27.558,7.699-42.809,9.13
							c-15.246,1.476-30.878,1.032-45.125-0.931l0.416,0.038c-3.718-0.343-8.014-0.748-11.786-1.297
							c-0.365-0.084-0.316-0.11,0.469,0.033c-5.19-0.9-9.957-2.168-15.049-3.455c0.05-0.022,0.05-0.02,0.881,0.162
							c-4.8-1.143-9.777-2.866-15.333-4.595l-0.29-0.158l-3.512-1.168c0.109-0.037,0.272-0.07,2.128,0.607
							c-21.276-7.522-41.644-18.689-59.826-32.939c-18.185-14.24-34.178-31.539-47.023-50.859l1.003,1.377
							c-1.714-2.462-3.38-4.956-5-7.482c0.054,0.025,0.293,0.379,0.537,0.734c-6.005-9.754-11.694-20.23-16.107-30.499
							c0.051,0.034,0.786,1.558,0.198,0.11c-3.449-7.521-4.728-12.399-6.47-16.17c-0.108-0.369-0.113-0.645,0.193,0.14
							c-7.72-21.666-12.113-45.156-12.915-68.315c-0.551-9.637-0.358-19.886,0.541-30.165c0.884-10.282,2.497-20.585,4.518-30.414
							l0.045,0.111c2.674-12.712,6.622-25.569,11.773-38.058c5.137-12.495,11.449-24.624,18.652-36
							c3.014-4.711,5.661-8.577,8.417-12.373c2.758-3.795,5.621-7.524,9.228-11.834l0.248-0.161
							c5.965-7.341,12.906-14.505,20.386-21.203c7.477-6.706,15.489-12.939,23.545-18.638l-1.056,0.867
							c1.205-0.946,3.688-2.604,5.755-3.929c2.066-1.326,3.702-2.346,3.123-2.172c1.003-0.586,2.014-1.161,3.029-1.727
							c5.66-3.604,11.087-6.44,16.962-9.177c5.886-2.719,12.22-5.356,19.923-8.223l-0.992,0.432
							c4.088-1.544,8.938-3.123,12.068-3.953c-0.481,0.153-0.25,0.108-1.241,0.417c13.176-3.654,28.133-6.815,42.554-7.857
							l-1.621,0.267c3.468-0.38,8.407-0.684,13.625-0.758c5.218-0.083,10.711,0.063,15.292,0.302l-0.561,0.031
							c1.546,0.057,3.092,0.126,4.636,0.217l0.111,0.14C420.673,133.569,431.809,135.327,443.107,138.176z"/>
						<path fill="#E8141A" d="M545.107,199.153l-0.083-0.095C544.771,198.806,544.891,198.931,545.107,199.153z"/>
						<path fill="#E8141A" d="M605.183,372.542l0.116-1.455C605.271,371.197,605.221,372.078,605.183,372.542z"/>
					</g>
				</g>
			</g>
		</g>
	</g>
</g>
<g id="Layer_1_1_">
	
		<radialGradient id="SVGID_1_" cx="56.1289" cy="68.1338" r="60.595" gradientTransform="matrix(1.0402 -0.2437 -0.2437 -1.0402 247.9283 614.3481)" gradientUnits="userSpaceOnUse">
		<stop  offset="0.4971" style="stop-color:#F15A24"/>
		<stop  offset="0.6043" style="stop-color:#F04424"/>
		<stop  offset="0.7443" style="stop-color:#EE2E24"/>
		<stop  offset="0.8787" style="stop-color:#ED2124"/>
		<stop  offset="1" style="stop-color:#ED1C24"/>
	</radialGradient>
	<path fill="url(#SVGID_1_)" d="M257.213,594.886c0,0,30.509-7.921,40.814-15.039l10.085-16.716c0,0-2.425,5.898-0.77,7.544
		l-9.674,16.535c0,0-12.086,10.914-47.199,12.792c0,0,4.738-7.967,0.14-13.494c0,0-8.658-6.607-15.961,4.501
		c0,0,0.978-13.18,14.603-17.894c13.623-4.718,28.451-9.716,23.72-22.322c0,0,5.424-1.777,6.568,2.019c0,0,6.166-7.284,3.863-13.858
		c-2.302-6.568-5.162-19.867,5.66-25.704s24.332-22.973,16.501-36.881c0,0,7.09,5.67,7.831,13.908
		c0.74,8.241,8.066-3.566,9.396-15.122c0,0,9.769-7.813,18.619-20.912l-50.603,85.462L257.213,594.886z"/>
	
		<linearGradient id="SVGID_2_" gradientUnits="userSpaceOnUse" x1="383.2944" y1="414.5566" x2="410.0049" y2="387.8463" gradientTransform="matrix(1.0402 -0.2437 -0.2437 -1.0402 247.9283 614.3481)">
		<stop  offset="0" style="stop-color:#000000"/>
		<stop  offset="0.1662" style="stop-color:#060606"/>
		<stop  offset="0.3885" style="stop-color:#171717"/>
		<stop  offset="0.4663" style="stop-color:#1F1F1F"/>
		<stop  offset="0.5848" style="stop-color:#141414"/>
		<stop  offset="0.8122" style="stop-color:#050505"/>
		<stop  offset="1" style="stop-color:#000000"/>
	</linearGradient>
	<path fill="url(#SVGID_2_)" d="M594.635,12.955c-0.37-0.224-0.699-0.061-1.009,0.238l-5.496,7.97c0,0-1.435,2.564-1.622,2.997
		c-0.188,0.43,0.213,0.917,0.213,0.917l-42.988,77.017c-0.003,0.389-9.192,15.329-11.063,19.353
		c-1.868,4.022-7.308,13.045-8.537,15.658c-1.23,2.613-6.573,11.228-8.813,15.725c-2.241,4.497-6.363,12.536-6.363,12.536
		l-1.839,0.432l-2.494,5.701l27.223,14.857l3.164-3.647l0.671-0.446c0,0,1.074-3.257,1.546-4.141
		c0.472-0.886,5.423-9.528,5.423-9.528l0.452-0.957l0.905-0.694l0.758-1.729l21.06-37.874c0,0,9.724-16.808,9.962-17.445
		l37.705-71.033c0.425-2.327,4.89-7.248,4.89-7.248l1.002-1.107c-0.507-1.334-6.251-4.349-6.549-4.375
		c-0.297-0.027-2.418-0.402-3.035-0.548c-0.615-0.146-2.217-3.259-4.634-5.309C602.747,18.226,594.635,12.955,594.635,12.955"/>
	<path fill="none" stroke="#EC1C24" stroke-miterlimit="10" d="M503.548,228.46"/>
	
		<linearGradient id="SVGID_3_" gradientUnits="userSpaceOnUse" x1="32.9653" y1="184.3711" x2="345.7979" y2="184.3711" gradientTransform="matrix(1.0402 -0.2437 -0.2437 -1.0402 247.9283 614.3481)">
		<stop  offset="0" style="stop-color:#FFFFFF"/>
		<stop  offset="1" style="stop-color:#000000"/>
	</linearGradient>
	<path fill="url(#SVGID_3_)" d="M501.736,178.176c-53.721,91.64-96.669,168.132-131.841,228.076
		c-26.699,45.505-48.41,82.098-65.393,110.506c1.129,0.701,2.115,1.311,2.558,1.585c1.375,0.852,0.638,2.726,0.638,2.726
		l-31.688,58.747c8.26-1.542,13.196-4.749,13.196-4.749s205.198-346.94,206.521-349.351c1.326-2.409,3.571-1.781,3.571-1.781
		l5.731,3.511l-0.005,0.005c0.583-0.459,1.448-0.854,2.51-0.441l6.644-12.035c0,0-4.074-3.439-4.825-6.645
		c-0.749-3.204,1.698-8.621,6.908-9.953c5.21-1.335,6.763,1.455,6.763,1.455l5.299-8.222L501.736,178.176z"/>
	
		<linearGradient id="SVGID_4_" gradientUnits="userSpaceOnUse" x1="46.0044" y1="161.583" x2="316.9175" y2="161.583" gradientTransform="matrix(1.0402 -0.2437 -0.2437 -1.0402 247.9283 614.3481)">
		<stop  offset="0" style="stop-color:#9E9E9E"/>
		<stop  offset="0.144" style="stop-color:#8E8E8E"/>
		<stop  offset="0.4245" style="stop-color:#656565"/>
		<stop  offset="0.8102" style="stop-color:#232323"/>
		<stop  offset="1" style="stop-color:#000000"/>
	</linearGradient>
	<path fill="url(#SVGID_4_)" d="M499.298,223.935c0,0-2.245-0.628-3.571,1.781c-1.324,2.409-206.521,349.35-206.521,349.35
		l8.824,4.78c0,0,120.944-196.708,206.199-351.546c0,0,0.291-0.447,0.797-0.849l0.005-0.005L499.298,223.935z"/>
	
		<linearGradient id="SVGID_5_" gradientUnits="userSpaceOnUse" x1="12.5352" y1="64.2661" x2="76.2699" y2="26.0748" gradientTransform="matrix(1.0402 -0.2437 -0.2437 -1.0402 247.9283 614.3481)">
		<stop  offset="0" style="stop-color:#FFFFFF"/>
		<stop  offset="0.0931" style="stop-color:#E9E9E9"/>
		<stop  offset="0.2668" style="stop-color:#C7C7C7"/>
		<stop  offset="0.4439" style="stop-color:#ACACAC"/>
		<stop  offset="0.6235" style="stop-color:#999999"/>
		<stop  offset="0.8068" style="stop-color:#8D8D8D"/>
		<stop  offset="1" style="stop-color:#8A8A8A"/>
	</linearGradient>
	<path fill="url(#SVGID_5_)" d="M257.213,594.886c6.829-3.216,18.796-15.069,18.796-15.069l31.688-58.747
		c0,0,0.737-1.874-0.638-2.725c-0.443-0.276-1.427-0.885-2.558-1.586C272.411,570.439,257.213,594.886,257.213,594.886z"/>
	
		<linearGradient id="SVGID_6_" gradientUnits="userSpaceOnUse" x1="29.8657" y1="35.0938" x2="38.0504" y2="-11.5342" gradientTransform="matrix(1.0402 -0.2437 -0.2437 -1.0402 247.9283 614.3481)">
		<stop  offset="0" style="stop-color:#FFFFFF"/>
		<stop  offset="0.0931" style="stop-color:#E9E9E9"/>
		<stop  offset="0.2668" style="stop-color:#C7C7C7"/>
		<stop  offset="0.4439" style="stop-color:#ACACAC"/>
		<stop  offset="0.6235" style="stop-color:#999999"/>
		<stop  offset="0.8068" style="stop-color:#8D8D8D"/>
		<stop  offset="1" style="stop-color:#8A8A8A"/>
	</linearGradient>
	<path fill="url(#SVGID_6_)" d="M289.205,575.066c0,0-4.936,3.207-13.196,4.749c0,0-11.967,11.854-18.796,15.069
		c0,0,25.308-5.933,40.814-15.039L289.205,575.066z"/>
	<g>
		
			<linearGradient id="SVGID_7_" gradientUnits="userSpaceOnUse" x1="335.4951" y1="343.584" x2="353.5454" y2="343.584" gradientTransform="matrix(1.0402 -0.2437 -0.2437 -1.0402 247.9283 614.3481)">
			<stop  offset="0" style="stop-color:#1A1A1A"/>
			<stop  offset="1" style="stop-color:#000000"/>
		</linearGradient>
		<polygon fill="url(#SVGID_7_)" points="517.334,169.312 511.269,167.068 533.854,178.93 		"/>
		
			<linearGradient id="SVGID_8_" gradientUnits="userSpaceOnUse" x1="353.7969" y1="343.7617" x2="357.3818" y2="343.7617" gradientTransform="matrix(1.0402 -0.2437 -0.2437 -1.0402 247.9283 614.3481)">
			<stop  offset="0" style="stop-color:#1A1A1A"/>
			<stop  offset="1" style="stop-color:#000000"/>
		</linearGradient>
		<path fill="url(#SVGID_8_)" d="M532.289,171.074c1.118,0.274,2.439,0.583,2.832,0.621c0.719,0.064,1.061-0.795,0.957-1.239
			c-0.043-0.176-1.026-1.091-2.274-2.161L532.289,171.074z"/>
		
			<linearGradient id="SVGID_9_" gradientUnits="userSpaceOnUse" x1="359.4497" y1="350.4697" x2="361.9341" y2="350.4697" gradientTransform="matrix(1.0402 -0.2437 -0.2437 -1.0402 247.9283 614.3481)">
			<stop  offset="0" style="stop-color:#1A1A1A"/>
			<stop  offset="1" style="stop-color:#000000"/>
		</linearGradient>
		<path fill="url(#SVGID_9_)" d="M536.629,163.124c0.936,0.317,2.165,0.535,2.218-0.489c0.069-1.483,0.164-2.033-0.615-2.45
			L536.629,163.124z"/>
		
			<linearGradient id="SVGID_10_" gradientUnits="userSpaceOnUse" x1="364.6812" y1="356.0195" x2="367.4517" y2="356.0195" gradientTransform="matrix(1.0402 -0.2437 -0.2437 -1.0402 247.9283 614.3481)">
			<stop  offset="0" style="stop-color:#1A1A1A"/>
			<stop  offset="1" style="stop-color:#000000"/>
		</linearGradient>
		<path fill="url(#SVGID_10_)" d="M541.975,153.322l-1.33,2.439c0.888,0.298,1.554,0.473,1.76,0.426
			c0.813-0.191,1.546-0.716,0.859-1.665C543.105,154.308,542.634,153.874,541.975,153.322z"/>
		
			<linearGradient id="SVGID_11_" gradientUnits="userSpaceOnUse" x1="369.8716" y1="361.4629" x2="371.8784" y2="361.4629" gradientTransform="matrix(1.0402 -0.2437 -0.2437 -1.0402 247.9283 614.3481)">
			<stop  offset="0" style="stop-color:#1A1A1A"/>
			<stop  offset="1" style="stop-color:#000000"/>
		</linearGradient>
		<path fill="url(#SVGID_11_)" d="M544.629,148.459c1.4,0.479,2.39,0.799,2.39,0.799s-0.273-1.235-1.227-2.926L544.629,148.459z"/>
		
			<linearGradient id="SVGID_12_" gradientUnits="userSpaceOnUse" x1="376.1787" y1="368.3633" x2="377.1382" y2="368.3633" gradientTransform="matrix(1.0402 -0.2437 -0.2437 -1.0402 247.9283 614.3481)">
			<stop  offset="0" style="stop-color:#1A1A1A"/>
			<stop  offset="1" style="stop-color:#000000"/>
		</linearGradient>
		<path fill="url(#SVGID_12_)" d="M549.472,139.588c0.703,0.253,1.147,0.405,1.147,0.405s-0.224-0.549-0.624-1.368L549.472,139.588z
			"/>
		
			<linearGradient id="SVGID_13_" gradientUnits="userSpaceOnUse" x1="381.252" y1="374.2324" x2="382.0888" y2="374.2324" gradientTransform="matrix(1.0402 -0.2437 -0.2437 -1.0402 247.9283 614.3481)">
			<stop  offset="0" style="stop-color:#1A1A1A"/>
			<stop  offset="1" style="stop-color:#000000"/>
		</linearGradient>
		<path fill="url(#SVGID_13_)" d="M553.366,132.451c0.546,0.131,0.914,0.211,0.914,0.211s-0.067-0.579-0.276-1.383L553.366,132.451z
			"/>
		
			<linearGradient id="SVGID_14_" gradientUnits="userSpaceOnUse" x1="386.6538" y1="381.1563" x2="388.7192" y2="381.1563" gradientTransform="matrix(1.0402 -0.2437 -0.2437 -1.0402 247.9283 614.3481)">
			<stop  offset="0" style="stop-color:#1A1A1A"/>
			<stop  offset="1" style="stop-color:#000000"/>
		</linearGradient>
		<polygon fill="url(#SVGID_14_)" points="559.661,124.348 559.098,121.943 557.513,124.851 		"/>
		
			<linearGradient id="SVGID_15_" gradientUnits="userSpaceOnUse" x1="392.4419" y1="386.9932" x2="393.9756" y2="386.9932" gradientTransform="matrix(1.0402 -0.2437 -0.2437 -1.0402 247.9283 614.3481)">
			<stop  offset="0" style="stop-color:#1A1A1A"/>
			<stop  offset="1" style="stop-color:#000000"/>
		</linearGradient>
		<path fill="url(#SVGID_15_)" d="M561.956,116.708c0.238,0.178,0.346,0.278,0.346,0.278l1.329-0.312c0,0-0.333-0.818-0.738-1.684
			L561.956,116.708z"/>
		
			<linearGradient id="SVGID_16_" gradientUnits="userSpaceOnUse" x1="397.7261" y1="392.9395" x2="399.9434" y2="392.9395" gradientTransform="matrix(1.0402 -0.2437 -0.2437 -1.0402 247.9283 614.3481)">
			<stop  offset="0" style="stop-color:#1A1A1A"/>
			<stop  offset="1" style="stop-color:#000000"/>
		</linearGradient>
		<path fill="url(#SVGID_16_)" d="M566.013,109.273c0.868,0.479,1.453,0.81,1.453,0.81l1.108-0.261c0,0-0.602-2.176-1.08-3.268
			L566.013,109.273z"/>
		
			<linearGradient id="SVGID_17_" gradientUnits="userSpaceOnUse" x1="403.5" y1="399.7324" x2="406.1982" y2="399.7324" gradientTransform="matrix(1.0402 -0.2437 -0.2437 -1.0402 247.9283 614.3481)">
			<stop  offset="0" style="stop-color:#1A1A1A"/>
			<stop  offset="1" style="stop-color:#000000"/>
		</linearGradient>
		<path fill="url(#SVGID_17_)" d="M570.445,101.149c0.363,0.08,0.646,0.13,0.729,0.111c0.294-0.068,1.898-1.536,1.898-1.536
			s-0.481-0.48-1.227-1.144L570.445,101.149z"/>
		
			<linearGradient id="SVGID_18_" gradientUnits="userSpaceOnUse" x1="408.5908" y1="405.3789" x2="410.8164" y2="405.3789" gradientTransform="matrix(1.0402 -0.2437 -0.2437 -1.0402 247.9283 614.3481)">
			<stop  offset="0" style="stop-color:#1A1A1A"/>
			<stop  offset="1" style="stop-color:#000000"/>
		</linearGradient>
		<path fill="url(#SVGID_18_)" d="M574.354,93.988l0.896,0.392l1.552-0.363c0,0-0.291-1.337-0.911-2.851L574.354,93.988z"/>
		
			<linearGradient id="SVGID_19_" gradientUnits="userSpaceOnUse" x1="414.583" y1="411.8643" x2="416.6416" y2="411.8643" gradientTransform="matrix(1.0402 -0.2437 -0.2437 -1.0402 247.9283 614.3481)">
			<stop  offset="0" style="stop-color:#1A1A1A"/>
			<stop  offset="1" style="stop-color:#000000"/>
		</linearGradient>
		<path fill="url(#SVGID_19_)" d="M578.953,85.559c0.899,0.199,2.386,0.549,2.35,0.388c-0.032-0.136-0.434-1.721-0.881-3.083
			L578.953,85.559z"/>
		
			<linearGradient id="SVGID_20_" gradientUnits="userSpaceOnUse" x1="420.9707" y1="418.5186" x2="422.998" y2="418.5186" gradientTransform="matrix(1.0402 -0.2437 -0.2437 -1.0402 247.9283 614.3481)">
			<stop  offset="0" style="stop-color:#1A1A1A"/>
			<stop  offset="1" style="stop-color:#000000"/>
		</linearGradient>
		<path fill="url(#SVGID_20_)" d="M585.056,74.376l-1.199,2.194c1.11,0.568,2.137,1.102,2.137,1.102s0.271-2.168-0.728-3.103
			C585.207,74.509,585.136,74.445,585.056,74.376z"/>
		
			<linearGradient id="SVGID_21_" gradientUnits="userSpaceOnUse" x1="426.2256" y1="425.1035" x2="429.3623" y2="425.1035" gradientTransform="matrix(1.0402 -0.2437 -0.2437 -1.0402 247.9283 614.3481)">
			<stop  offset="0" style="stop-color:#1A1A1A"/>
			<stop  offset="1" style="stop-color:#000000"/>
		</linearGradient>
		<path fill="url(#SVGID_21_)" d="M587.892,69.18c0.873,0.311,1.593,0.501,1.904,0.427c1.107-0.261,1.553-0.363,1.553-0.363
			s-0.499-1.904-1.741-3.211L587.892,69.18z"/>
		
			<linearGradient id="SVGID_22_" gradientUnits="userSpaceOnUse" x1="432.4717" y1="431.084" x2="433.6299" y2="431.084" gradientTransform="matrix(1.0402 -0.2437 -0.2437 -1.0402 247.9283 614.3481)">
			<stop  offset="0" style="stop-color:#1A1A1A"/>
			<stop  offset="1" style="stop-color:#000000"/>
		</linearGradient>
		<path fill="url(#SVGID_22_)" d="M592.685,60.394c0.898,0.481,1.455,0.789,1.455,0.789s-0.357-0.718-0.956-1.705L592.685,60.394z"
			/>
		
			<linearGradient id="SVGID_23_" gradientUnits="userSpaceOnUse" x1="437.1797" y1="437.4102" x2="441.04" y2="437.4102" gradientTransform="matrix(1.0402 -0.2437 -0.2437 -1.0402 247.9283 614.3481)">
			<stop  offset="0" style="stop-color:#1A1A1A"/>
			<stop  offset="1" style="stop-color:#000000"/>
		</linearGradient>
		<path fill="url(#SVGID_23_)" d="M598.556,49.635l-2.256,4.131c0.381,0.183,0.612,0.295,0.612,0.295l2.554,0.571
			c0,0,0.99-2.101,0.508-3.16C599.681,50.835,599.026,50.109,598.556,49.635z"/>
		
			<linearGradient id="SVGID_24_" gradientUnits="userSpaceOnUse" x1="342.3179" y1="349.6465" x2="355.2778" y2="349.6465" gradientTransform="matrix(1.0402 -0.2437 -0.2437 -1.0402 247.9283 614.3481)">
			<stop  offset="0" style="stop-color:#1A1A1A"/>
			<stop  offset="1" style="stop-color:#000000"/>
		</linearGradient>
		<polygon fill="url(#SVGID_24_)" points="522.992,166.193 531.446,170.867 533.128,167.719 517.326,160.971 		"/>
		
			<linearGradient id="SVGID_25_" gradientUnits="userSpaceOnUse" x1="347.9316" y1="356.5303" x2="360.8438" y2="356.5303" gradientTransform="matrix(1.0402 -0.2437 -0.2437 -1.0402 247.9283 614.3481)">
			<stop  offset="0" style="stop-color:#1A1A1A"/>
			<stop  offset="1" style="stop-color:#000000"/>
		</linearGradient>
		<polygon fill="url(#SVGID_25_)" points="531.98,156.291 521.382,151.989 535.765,162.781 537.374,159.773 		"/>
		
			<linearGradient id="SVGID_26_" gradientUnits="userSpaceOnUse" x1="354.7319" y1="361.5586" x2="365.8237" y2="361.5586" gradientTransform="matrix(1.0402 -0.2437 -0.2437 -1.0402 247.9283 614.3481)">
			<stop  offset="0" style="stop-color:#1A1A1A"/>
			<stop  offset="1" style="stop-color:#000000"/>
		</linearGradient>
		<polygon fill="url(#SVGID_26_)" points="533.933,147.645 527.434,145.971 539.69,155.428 541.172,152.66 		"/>
		
			<linearGradient id="SVGID_27_" gradientUnits="userSpaceOnUse" x1="360.083" y1="368.0645" x2="371.0024" y2="368.0645" gradientTransform="matrix(1.0402 -0.2437 -0.2437 -1.0402 247.9283 614.3481)">
			<stop  offset="0" style="stop-color:#1A1A1A"/>
			<stop  offset="1" style="stop-color:#000000"/>
		</linearGradient>
		<polygon fill="url(#SVGID_27_)" points="531.251,137.202 543.608,148.105 545.121,145.261 		"/>
		
			<linearGradient id="SVGID_28_" gradientUnits="userSpaceOnUse" x1="364.7744" y1="374.6758" x2="375.2612" y2="374.6758" gradientTransform="matrix(1.0402 -0.2437 -0.2437 -1.0402 247.9283 614.3481)">
			<stop  offset="0" style="stop-color:#1A1A1A"/>
			<stop  offset="1" style="stop-color:#000000"/>
		</linearGradient>
		<polygon fill="url(#SVGID_28_)" points="544.166,131.76 534.642,129.702 548.37,139.185 		"/>
		
			<linearGradient id="SVGID_29_" gradientUnits="userSpaceOnUse" x1="371.3833" y1="380.4678" x2="380.7612" y2="380.4678" gradientTransform="matrix(1.0402 -0.2437 -0.2437 -1.0402 247.9283 614.3481)">
			<stop  offset="0" style="stop-color:#1A1A1A"/>
			<stop  offset="1" style="stop-color:#000000"/>
		</linearGradient>
		<polygon fill="url(#SVGID_29_)" points="551.583,127.137 540.062,121.884 552.133,132.144 		"/>
		
			<linearGradient id="SVGID_30_" gradientUnits="userSpaceOnUse" x1="376.2822" y1="387.0898" x2="388.1035" y2="387.0898" gradientTransform="matrix(1.0402 -0.2437 -0.2437 -1.0402 247.9283 614.3481)">
			<stop  offset="0" style="stop-color:#1A1A1A"/>
			<stop  offset="1" style="stop-color:#000000"/>
		</linearGradient>
		<polygon fill="url(#SVGID_30_)" points="555.258,118.868 543.408,113.224 556.194,124.536 558.165,120.845 		"/>
		
			<linearGradient id="SVGID_31_" gradientUnits="userSpaceOnUse" x1="382.0874" y1="393.5" x2="393.0547" y2="393.5" gradientTransform="matrix(1.0402 -0.2437 -0.2437 -1.0402 247.9283 614.3481)">
			<stop  offset="0" style="stop-color:#1A1A1A"/>
			<stop  offset="1" style="stop-color:#000000"/>
		</linearGradient>
		<polygon fill="url(#SVGID_31_)" points="561.772,113.054 547.992,105.601 560.783,115.942 		"/>
		
			<linearGradient id="SVGID_32_" gradientUnits="userSpaceOnUse" x1="388.0322" y1="399.0332" x2="398.8789" y2="399.0332" gradientTransform="matrix(1.0402 -0.2437 -0.2437 -1.0402 247.9283 614.3481)">
			<stop  offset="0" style="stop-color:#1A1A1A"/>
			<stop  offset="1" style="stop-color:#000000"/>
		</linearGradient>
		<polygon fill="url(#SVGID_32_)" points="558.336,100.059 552.912,98.757 564.725,108.565 566.385,105.461 		"/>
		
			<linearGradient id="SVGID_33_" gradientUnits="userSpaceOnUse" x1="393.9893" y1="405.2012" x2="404.4307" y2="405.2012" gradientTransform="matrix(1.0402 -0.2437 -0.2437 -1.0402 247.9283 614.3481)">
			<stop  offset="0" style="stop-color:#1A1A1A"/>
			<stop  offset="1" style="stop-color:#000000"/>
		</linearGradient>
		<polygon fill="url(#SVGID_33_)" points="567.442,95.328 557.619,90.948 568.898,100.757 570.619,97.534 		"/>
		
			<linearGradient id="SVGID_34_" gradientUnits="userSpaceOnUse" x1="398.6646" y1="412.21" x2="409.041" y2="412.21" gradientTransform="matrix(1.0402 -0.2437 -0.2437 -1.0402 247.9283 614.3481)">
			<stop  offset="0" style="stop-color:#1A1A1A"/>
			<stop  offset="1" style="stop-color:#000000"/>
		</linearGradient>
		<polygon fill="url(#SVGID_34_)" points="573.311,87.428 560.508,81.382 572.858,93.339 		"/>
		
			<linearGradient id="SVGID_35_" gradientUnits="userSpaceOnUse" x1="404.8477" y1="418.2129" x2="416.0869" y2="418.2129" gradientTransform="matrix(1.0402 -0.2437 -0.2437 -1.0402 247.9283 614.3481)">
			<stop  offset="0" style="stop-color:#1A1A1A"/>
			<stop  offset="1" style="stop-color:#000000"/>
		</linearGradient>
		<polygon fill="url(#SVGID_35_)" points="574.585,77.229 565.641,74.331 577.332,84.967 579.51,80.889 		"/>
		
			<linearGradient id="SVGID_36_" gradientUnits="userSpaceOnUse" x1="408.9678" y1="425.6133" x2="421.5107" y2="425.6133" gradientTransform="matrix(1.0402 -0.2437 -0.2437 -1.0402 247.9283 614.3481)">
			<stop  offset="0" style="stop-color:#1A1A1A"/>
			<stop  offset="1" style="stop-color:#000000"/>
		</linearGradient>
		<polygon fill="url(#SVGID_36_)" points="580.393,70.408 568.108,65.567 582.249,75.76 583.646,73.143 		"/>
		
			<linearGradient id="SVGID_37_" gradientUnits="userSpaceOnUse" x1="415.9844" y1="431.5313" x2="427.2471" y2="431.5313" gradientTransform="matrix(1.0402 -0.2437 -0.2437 -1.0402 247.9283 614.3481)">
			<stop  offset="0" style="stop-color:#1A1A1A"/>
			<stop  offset="1" style="stop-color:#000000"/>
		</linearGradient>
		<polygon fill="url(#SVGID_37_)" points="585.458,62.75 573.935,57.574 586.133,68.49 588.021,64.954 		"/>
		
			<linearGradient id="SVGID_38_" gradientUnits="userSpaceOnUse" x1="421.2627" y1="438.1455" x2="432.3896" y2="438.1455" gradientTransform="matrix(1.0402 -0.2437 -0.2437 -1.0402 247.9283 614.3481)">
			<stop  offset="0" style="stop-color:#1A1A1A"/>
			<stop  offset="1" style="stop-color:#000000"/>
		</linearGradient>
		<polygon fill="url(#SVGID_38_)" points="587.342,53.811 577.953,50.005 590.949,59.474 591.944,57.612 		"/>
		
			<linearGradient id="SVGID_39_" gradientUnits="userSpaceOnUse" x1="426.1631" y1="445.5332" x2="438.9922" y2="445.5332" gradientTransform="matrix(1.0402 -0.2437 -0.2437 -1.0402 247.9283 614.3481)">
			<stop  offset="0" style="stop-color:#1A1A1A"/>
			<stop  offset="1" style="stop-color:#000000"/>
		</linearGradient>
		<polygon fill="url(#SVGID_39_)" points="590.599,42.756 580.73,38.907 594.469,52.884 596.98,48.181 		"/>
		
			<linearGradient id="SVGID_40_" gradientUnits="userSpaceOnUse" x1="438.0918" y1="454.0615" x2="450.7412" y2="454.0615" gradientTransform="matrix(1.0402 -0.2437 -0.2437 -1.0402 247.9283 614.3481)">
			<stop  offset="0" style="stop-color:#1A1A1A"/>
			<stop  offset="1" style="stop-color:#000000"/>
		</linearGradient>
		<polygon fill="url(#SVGID_40_)" points="607.443,37.814 591.22,27.813 607.876,39.663 		"/>
	</g>
	<g opacity="0.32">
		<path fill="#FFFFFF" d="M531.446,170.867c0.25,0.065,0.537,0.135,0.843,0.207l1.516-2.78c-0.219-0.188-0.446-0.379-0.677-0.577
			L531.446,170.867z"/>
		<path fill="#FFFFFF" d="M537.374,159.773l-1.609,3.008c0.188,0.085,0.503,0.221,0.865,0.342l1.603-2.938
			c-0.092-0.048-0.188-0.096-0.306-0.141C537.792,159.99,537.601,159.895,537.374,159.773z"/>
		<path fill="#FFFFFF" d="M539.69,155.428c0.339,0.122,0.658,0.233,0.954,0.333l1.33-2.439c-0.243-0.207-0.512-0.428-0.803-0.663
			L539.69,155.428z"/>
		<path fill="#FFFFFF" d="M543.608,148.105c0.354,0.125,0.698,0.245,1.02,0.354l1.163-2.127c-0.194-0.341-0.414-0.701-0.67-1.071
			L543.608,148.105z"/>
		<path fill="#FFFFFF" d="M548.37,139.185c0.415,0.153,0.782,0.288,1.102,0.403l0.523-0.962c-0.182-0.373-0.402-0.802-0.651-1.26
			L548.37,139.185z"/>
		<path fill="#FFFFFF" d="M552.133,132.144c0.457,0.12,0.882,0.223,1.233,0.308l0.639-1.172c-0.127-0.483-0.305-1.046-0.549-1.617
			L552.133,132.144z"/>
		<path fill="#FFFFFF" d="M556.194,124.536c0.554,0.264,0.88,0.417,0.88,0.417l0.438-0.103l1.584-2.907l-0.122-0.515
			c0,0-0.336-0.246-0.81-0.583L556.194,124.536z"/>
		<path fill="#FFFFFF" d="M560.783,115.942c0.552,0.325,0.932,0.585,1.174,0.764l0.937-1.718c-0.26-0.553-0.545-1.121-0.792-1.509
			L560.783,115.942z"/>
		<path fill="#FFFFFF" d="M566.385,105.461l-1.66,3.103c0.468,0.254,0.904,0.496,1.288,0.708l1.482-2.718
			c-0.14-0.323-0.272-0.555-0.372-0.603C567.053,105.92,566.781,105.737,566.385,105.461z"/>
		<path fill="#FFFFFF" d="M568.898,100.757c0.482,0.13,1.083,0.288,1.546,0.394l1.4-2.569c-0.355-0.316-0.771-0.674-1.226-1.048
			L568.898,100.757z"/>
		<path fill="#FFFFFF" d="M572.858,93.339l1.494,0.649l1.537-2.822c-0.245-0.604-0.544-1.236-0.898-1.824L572.858,93.339z"/>
		<path fill="#FFFFFF" d="M579.51,80.889l-2.178,4.077c0.529,0.279,0.906,0.468,0.965,0.467c0.065-0.002,0.32,0.05,0.656,0.125
			l1.469-2.696c-0.285-0.869-0.589-1.648-0.83-1.896C579.573,80.945,579.537,80.914,579.51,80.889z"/>
		<path fill="#FFFFFF" d="M582.249,75.76c0.481,0.237,1.053,0.528,1.607,0.81l1.199-2.194c-0.349-0.316-0.854-0.759-1.409-1.232
			L582.249,75.76z"/>
		<path fill="#FFFFFF" d="M588.353,65.111c-0.114-0.049-0.225-0.103-0.332-0.157l-1.89,3.538c0.604,0.254,1.212,0.496,1.759,0.69
			l1.716-3.148C589.252,65.657,588.84,65.329,588.353,65.111z"/>
		<path fill="#FFFFFF" d="M590.949,59.474c0.66,0.344,1.25,0.657,1.735,0.919l0.5-0.917c-0.343-0.562-0.761-1.211-1.24-1.866
			L590.949,59.474z"/>
		<path fill="#FFFFFF" d="M598.019,49.125c0,0-0.411-0.377-1.039-0.944l-2.512,4.703c0.725,0.351,1.381,0.667,1.831,0.883
			l2.256-4.131C598.249,49.328,598.019,49.125,598.019,49.125z"/>
	</g>
	
		<linearGradient id="SVGID_41_" gradientUnits="userSpaceOnUse" x1="444.377" y1="468.0146" x2="465.9053" y2="468.0146" gradientTransform="matrix(1.0402 -0.2437 -0.2437 -1.0402 247.9283 614.3481)">
		<stop  offset="0" style="stop-color:#FFFFFF"/>
		<stop  offset="1" style="stop-color:#000000"/>
	</linearGradient>
	<path fill="url(#SVGID_41_)" d="M620.751,29.532l-1.366,0.975c-0.506-1.334-6.251-4.349-6.549-4.375
		c-0.296-0.027-2.418-0.402-3.034-0.548c-0.616-0.146-2.218-3.259-4.635-5.309c-2.42-2.048-10.531-7.318-10.531-7.318
		s4.67-7.442,5.164-8.241c0.498-0.799,5.899-4.454,6.98-4.709C607.857-0.248,621.109,8.713,620.751,29.532z M608.985,15.123
		c2.277-0.534,3.687-2.809,3.157-5.084c-0.539-2.273-2.812-3.686-5.088-3.154c-2.272,0.534-3.684,2.809-3.152,5.084
		C604.436,14.243,606.709,15.656,608.985,15.123z"/>
	
		<linearGradient id="SVGID_42_" gradientUnits="userSpaceOnUse" x1="345.9648" y1="325.1924" x2="328.5685" y2="342.5888" gradientTransform="matrix(1.0402 -0.2437 -0.2437 -1.0402 247.9283 614.3481)">
		<stop  offset="0" style="stop-color:#3B3B3B"/>
		<stop  offset="0.4908" style="stop-color:#FFFFFF"/>
		<stop  offset="0.4986" style="stop-color:#F7F7F7"/>
		<stop  offset="0.55" style="stop-color:#C5C5C5"/>
		<stop  offset="0.6027" style="stop-color:#9B9B9B"/>
		<stop  offset="0.6557" style="stop-color:#787878"/>
		<stop  offset="0.7092" style="stop-color:#5D5D5D"/>
		<stop  offset="0.7635" style="stop-color:#4A4A4A"/>
		<stop  offset="0.8189" style="stop-color:#3E3E3E"/>
		<stop  offset="0.8773" style="stop-color:#3B3B3B"/>
	</linearGradient>
	<path fill="url(#SVGID_42_)" d="M491.678,174.485l-0.435-1.843l-5.303-2.314c0,0-1.315-3.045-2.18-3.58l-2.394-3.061l-3.365-2.631
		l33.689,19.271l35.501,18.108l1.896,0.511l4.016,4.647l-1.619,2.168l-4.117-2.612l-1.169,0.833l-18.904-10.777l1.027-1.595
		l-26.586-13.433l-0.467,0.792L491.678,174.485z"/>
	
		<linearGradient id="SVGID_43_" gradientUnits="userSpaceOnUse" x1="362.9043" y1="312.6953" x2="366.4155" y2="312.6953" gradientTransform="matrix(1.0402 -0.2437 -0.2437 -1.0402 247.9283 614.3481)">
		<stop  offset="0" style="stop-color:#FFFFFF"/>
		<stop  offset="0.0931" style="stop-color:#E9E9E9"/>
		<stop  offset="0.2668" style="stop-color:#C7C7C7"/>
		<stop  offset="0.4439" style="stop-color:#ACACAC"/>
		<stop  offset="0.6235" style="stop-color:#999999"/>
		<stop  offset="0.8068" style="stop-color:#8D8D8D"/>
		<stop  offset="1" style="stop-color:#8A8A8A"/>
	</linearGradient>
	<polygon fill="url(#SVGID_43_)" points="553.104,203.592 553.348,201.859 550.203,196.561 548.794,198.868 	"/>
	<polygon fill="#231F20" points="545.617,201.49 530.39,192.375 544.935,198.578 	"/>
	<polygon fill="#231F20" points="501.735,176.655 489.351,171.024 487.026,167.767 	"/>
	
		<linearGradient id="SVGID_44_" gradientUnits="userSpaceOnUse" x1="357.3823" y1="317.8574" x2="364.6807" y2="317.8574" gradientTransform="matrix(1.0402 -0.2437 -0.2437 -1.0402 247.9283 614.3481)">
		<stop  offset="0" style="stop-color:#FFFFFF"/>
		<stop  offset="0.0931" style="stop-color:#E9E9E9"/>
		<stop  offset="0.2668" style="stop-color:#C7C7C7"/>
		<stop  offset="0.4439" style="stop-color:#ACACAC"/>
		<stop  offset="0.6235" style="stop-color:#999999"/>
		<stop  offset="0.8068" style="stop-color:#8D8D8D"/>
		<stop  offset="1" style="stop-color:#8A8A8A"/>
	</linearGradient>
	<polygon fill="url(#SVGID_44_)" points="548.96,198.598 550.203,196.561 543.941,194.341 543.571,192.752 542.015,195.794 
		543.7,196.654 	"/>
	
		<linearGradient id="SVGID_45_" gradientUnits="userSpaceOnUse" x1="309.4102" y1="340.792" x2="359.4502" y2="340.792" gradientTransform="matrix(1.0402 -0.2437 -0.2437 -1.0402 247.9283 614.3481)">
		<stop  offset="0" style="stop-color:#FFFFFF"/>
		<stop  offset="0.0931" style="stop-color:#E9E9E9"/>
		<stop  offset="0.2668" style="stop-color:#C7C7C7"/>
		<stop  offset="0.4439" style="stop-color:#ACACAC"/>
		<stop  offset="0.6235" style="stop-color:#999999"/>
		<stop  offset="0.8068" style="stop-color:#8D8D8D"/>
		<stop  offset="1" style="stop-color:#8A8A8A"/>
	</linearGradient>
	<polygon fill="url(#SVGID_45_)" points="504.285,171.314 484.756,160.944 483.274,161.291 482.92,161.062 482.92,161.062 
		481.738,163.193 512.061,180.515 542.015,195.794 543.571,192.752 	"/>
	
		<linearGradient id="SVGID_46_" gradientUnits="userSpaceOnUse" x1="306.4609" y1="363.3174" x2="310.9424" y2="363.3174" gradientTransform="matrix(1.0402 -0.2437 -0.2437 -1.0402 247.9283 614.3481)">
		<stop  offset="0" style="stop-color:#FFFFFF"/>
		<stop  offset="0.0931" style="stop-color:#E9E9E9"/>
		<stop  offset="0.2668" style="stop-color:#C7C7C7"/>
		<stop  offset="0.4439" style="stop-color:#ACACAC"/>
		<stop  offset="0.6235" style="stop-color:#999999"/>
		<stop  offset="0.8068" style="stop-color:#8D8D8D"/>
		<stop  offset="1" style="stop-color:#8A8A8A"/>
	</linearGradient>
	<polygon fill="url(#SVGID_46_)" points="482.92,161.062 479.85,159.07 478.001,161.055 481.738,163.193 	"/>
	<defs>
		<filter id="Adobe_OpacityMaskFilter" filterUnits="userSpaceOnUse" x="256.151" y="177.518" width="272.892" height="418.13">
			<feColorMatrix  type="matrix" values="1 0 0 0 0  0 1 0 0 0  0 0 1 0 0  0 0 0 1 0"/>
		</filter>
	</defs>
	<mask maskUnits="userSpaceOnUse" x="256.151" y="177.518" width="272.892" height="418.13" id="SVGID_48_">
		<g filter="url(#Adobe_OpacityMaskFilter)">
			
				<linearGradient id="SVGID_47_" gradientUnits="userSpaceOnUse" x1="41.9209" y1="72.668" x2="117.5691" y2="2.5723" gradientTransform="matrix(1.0402 -0.2437 -0.2437 -1.0402 247.9283 614.3481)">
				<stop  offset="0" style="stop-color:#231F20"/>
				<stop  offset="0.3117" style="stop-color:#716E6F"/>
				<stop  offset="0.6416" style="stop-color:#BDBCBC"/>
				<stop  offset="0.8774" style="stop-color:#EDECEC"/>
				<stop  offset="0.9939" style="stop-color:#FFFFFF"/>
			</linearGradient>
			<path fill="url(#SVGID_47_)" d="M214.743,634.725c32.496-4.28,123.633-5.066,139.59-36.826
				c17.719-35.273,36.389-84.952,33.034-118.612c-3.354-33.658-16.455-35.43-16.759-34.146
				c-0.304,1.276-73.313,120.796-73.313,120.796s-3.944,8.04-8.329,11.796c-4.385,3.757-9.213,3.225-11.765,5.042L214.743,634.725z"
				/>
			
				<linearGradient id="SVGID_49_" gradientUnits="userSpaceOnUse" x1="174.6709" y1="295.5503" x2="162.1978" y2="257.1623" gradientTransform="matrix(1.0402 -0.2437 -0.2437 -1.0402 247.9283 614.3481)">
				<stop  offset="0" style="stop-color:#231F20"/>
				<stop  offset="0.2614" style="stop-color:#504E50"/>
				<stop  offset="0.7343" style="stop-color:#9E9FA1"/>
				<stop  offset="0.9509" style="stop-color:#BDBFC1"/>
			</linearGradient>
			<path fill="url(#SVGID_49_)" d="M273.406,577.954c23.328-45.067,194.102-330.291,194.102-330.291s6.723-10.259,7.646-24.374
				c0.925-14.112-90.625,77.429-115.005,119.095c-24.378,41.667-127.425,196.331-127.522,226.87
				c-0.095,30.535-38.604,59.37-5.835,53.507L273.406,577.954z"/>
			<g>
				<g>
					<path fill="#BDBFC1" d="M406.088,561.488c0.822,0,2.18-1.248,0.782-1.248C406.048,560.24,404.691,561.488,406.088,561.488
						L406.088,561.488z"/>
				</g>
			</g>
		</g>
	</mask>
	<path mask="url(#SVGID_48_)" fill="#FFFFFF" stroke="#000000" stroke-miterlimit="10" d="M501.736,178.176
		c-53.721,91.64-96.669,168.132-131.841,228.076c-26.699,45.505-48.41,82.098-65.393,110.506
		c-32.091,53.682-47.288,78.128-47.288,78.128s25.308-5.933,40.814-15.039c0,0,120.944-196.708,206.199-351.546
		c0,0,0.291-0.448,0.797-0.85c0.582-0.459,1.448-0.854,2.51-0.441l6.644-12.035c0,0-4.074-3.439-4.825-6.645
		c-0.749-3.204,1.698-8.621,6.908-9.953c5.21-1.335,6.763,1.456,6.763,1.456l5.299-8.223L501.736,178.176z"/>
</g>
</svg>
